<svg xmlns="http://www.w3.org/2000/svg" width="18.148" height="18.138" viewBox="0 0 18.148 18.138">
  <g id="Group_6" data-name="Group 6" transform="translate(-261.777 -964.789)">
    <g id="Group_5" data-name="Group 5">
      <g id="Group_4" data-name="Group 4">
        <path id="Path_30" data-name="Path 30" d="M270.863,970.293a3.528,3.528,0,1,0,3.65,3.512,3.588,3.588,0,0,0-3.65-3.512m7.005,2.163h-1.592a5.231,5.231,0,0,1,.235,1.559,5.64,5.64,0,1,1-11.054-1.559H263.8v7.663a.715.715,0,0,0,.711.724h12.644a.714.714,0,0,0,.714-.724ZM275,966.794a.823.823,0,0,0-.82.822v1.956a.819.819,0,0,0,.82.813h2.057a.81.81,0,0,0,.8-.813v-1.956a.814.814,0,0,0-.8-.822Zm-10.891-2.005h13.485a2.336,2.336,0,0,1,2.333,2.319V980.6a2.35,2.35,0,0,1-2.333,2.329H264.107a2.341,2.341,0,0,1-2.33-2.329v-13.49a2.328,2.328,0,0,1,2.33-2.319" fill="#5ab6ad"/>
      </g>
    </g>
  </g>
</svg>
