<svg xmlns="http://www.w3.org/2000/svg" width="20.944" height="19.997" viewBox="0 0 20.944 19.997">
  <g id="Group_13" data-name="Group 13" transform="translate(-309.093 -962.93)">
    <g id="Group_12" data-name="Group 12">
      <path id="Path_33" data-name="Path 33" d="M320.823,982.927h-4.462V969.48h4.455v1.8a3.442,3.442,0,0,0,.27-.289,4.326,4.326,0,0,1,3.927-1.848,4.815,4.815,0,0,1,4.915,4.751c.128,1.842.082,3.7.1,5.55.013,1.151,0,2.294,0,3.473h-4.495v-.51c0-2.173.012-4.345-.007-6.521a7.112,7.112,0,0,0-.187-1.586,1.925,1.925,0,0,0-1.769-1.6,2.213,2.213,0,0,0-2.307,1.088,3.02,3.02,0,0,0-.415,1.376c-.043,2.4-.023,4.8-.03,7.208Z" fill="#5ab6ad" fill-rule="evenodd"/>
      <path id="Path_34" data-name="Path 34" d="M313.831,969.48v13.44H309.4V969.48Z" fill="#5ab6ad" fill-rule="evenodd"/>
      <path id="Path_35" data-name="Path 35" d="M311.648,962.93a2.358,2.358,0,0,1,2.49,2.38,2.384,2.384,0,0,1-2.578,2.3,2.344,2.344,0,1,1,.088-4.676Z" fill="#5ab6ad" fill-rule="evenodd"/>
    </g>
  </g>
</svg>
