<svg xmlns="http://www.w3.org/2000/svg" width="108.333" height="61.209" viewBox="0 0 108.333 61.209">
  <g id="Group_2" data-name="Group 2" transform="translate(-243.471 -24.84)">
    <g id="Group_1" data-name="Group 1">
      <path id="Path_1" data-name="Path 1" d="M246.73,85.39v.541l-3.259-1.525v-.465l3.259-1.525v.541l-2.681,1.216Z" fill="#171716"/>
      <path id="Path_2" data-name="Path 2" d="M248.742,84.089a1.824,1.824,0,1,1,1.824,1.813A1.79,1.79,0,0,1,248.742,84.089Zm.4,0a1.425,1.425,0,1,0,1.425-1.446A1.43,1.43,0,0,0,249.141,84.089Z" fill="#171716"/>
      <path id="Path_3" data-name="Path 3" d="M254.606,85.839V82.186l2.733,2.865V82.333h.389V86l-2.733-2.865v2.707Z" fill="#171716"/>
      <path id="Path_4" data-name="Path 4" d="M260.522,82.333v3.138h.968v.368h-1.357V82.333Z" fill="#171716"/>
      <path id="Path_5" data-name="Path 5" d="M263.9,82.333v3.506h-.389V82.333Z" fill="#171716"/>
      <path id="Path_6" data-name="Path 6" d="M266.311,85.839V82.186l2.733,2.865V82.333h.389V86L266.7,83.132v2.707Z" fill="#171716"/>
      <path id="Path_7" data-name="Path 7" d="M273.657,82.7h-1.43v1.041h1.388v.368h-1.388v1.361h1.43v.368h-1.819V82.333h1.819Z" fill="#171716"/>
      <path id="Path_8" data-name="Path 8" d="M279.124,82.333h.715a1.906,1.906,0,0,1,1.293.41,1.709,1.709,0,0,1,.6,1.346,1.667,1.667,0,0,1-.615,1.345,1.754,1.754,0,0,1-1.283.4h-.71Zm.389,3.138h.342a1.5,1.5,0,0,0,1-.315,1.405,1.405,0,0,0-1-2.455h-.342Z" fill="#171716"/>
      <path id="Path_9" data-name="Path 9" d="M285.766,82.7h-1.429v1.041h1.387v.368h-1.387v1.361h1.429v.368h-1.818V82.333h1.818Z" fill="#171716"/>
      <path id="Path_10" data-name="Path 10" d="M289.549,83.027a.833.833,0,0,0-.205-.263.626.626,0,0,0-.394-.121.538.538,0,0,0-.589.542.368.368,0,0,0,.131.3,1.165,1.165,0,0,0,.368.221l.337.147a1.7,1.7,0,0,1,.541.332.841.841,0,0,1,.253.636,1.126,1.126,0,0,1-1.872.793,1.28,1.28,0,0,1-.326-.62l.379-.105a.828.828,0,0,0,.21.447.673.673,0,0,0,.505.194.664.664,0,0,0,.7-.694.525.525,0,0,0-.173-.41,1.549,1.549,0,0,0-.421-.241l-.315-.148a1.539,1.539,0,0,1-.468-.289.726.726,0,0,1-.242-.573.906.906,0,0,1,.983-.9.944.944,0,0,1,.562.158,1.053,1.053,0,0,1,.342.389Z" fill="#171716"/>
      <path id="Path_11" data-name="Path 11" d="M292.6,82.333v3.506h-.389V82.333Z" fill="#171716"/>
      <path id="Path_12" data-name="Path 12" d="M296.809,84.078h1.462v.084a1.929,1.929,0,0,1-.337,1.109,1.572,1.572,0,0,1-1.3.631,1.814,1.814,0,1,1,.01-3.627,1.746,1.746,0,0,1,1.073.347,2.155,2.155,0,0,1,.4.415l-.289.263a1.855,1.855,0,0,0-.331-.363,1.291,1.291,0,0,0-.852-.294,1.446,1.446,0,0,0-.01,2.891,1.217,1.217,0,0,0,1.072-.589,1.1,1.1,0,0,0,.142-.5h-1.041Z" fill="#171716"/>
      <path id="Path_13" data-name="Path 13" d="M300.487,85.839V82.186l2.733,2.865V82.333h.389V86l-2.733-2.865v2.707Z" fill="#171716"/>
      <path id="Path_14" data-name="Path 14" d="M310.832,83.027a.851.851,0,0,0-.206-.263.626.626,0,0,0-.394-.121.538.538,0,0,0-.588.542.365.365,0,0,0,.131.3,1.154,1.154,0,0,0,.368.221l.336.147a1.7,1.7,0,0,1,.542.332.84.84,0,0,1,.252.636,1.125,1.125,0,0,1-1.871.793,1.263,1.263,0,0,1-.326-.62l.378-.105a.836.836,0,0,0,.211.447.718.718,0,0,0,1.209-.5.526.526,0,0,0-.174-.41,1.541,1.541,0,0,0-.42-.241l-.316-.148a1.539,1.539,0,0,1-.468-.289.728.728,0,0,1-.241-.573.906.906,0,0,1,.983-.9.948.948,0,0,1,.562.158,1.053,1.053,0,0,1,.342.389Z" fill="#171716"/>
      <path id="Path_15" data-name="Path 15" d="M315.308,82.7h-1.43v1.041h1.388v.368h-1.388v1.361h1.43v.368h-1.819V82.333h1.819Z" fill="#171716"/>
      <path id="Path_16" data-name="Path 16" d="M318.087,82.333a1.542,1.542,0,0,1,.851.194.975.975,0,0,1-.5,1.746l1.114,1.566h-.473L318.013,84.3h-.1v1.535h-.389V82.333Zm-.174,1.624h.247c.484,0,.773-.231.773-.641a.545.545,0,0,0-.279-.515.99.99,0,0,0-.5-.1h-.237Z" fill="#171716"/>
      <path id="Path_17" data-name="Path 17" d="M321.685,82.333l.988,2.676.989-2.676h.431l-1.42,3.716-1.419-3.716Z" fill="#171716"/>
      <path id="Path_18" data-name="Path 18" d="M326.477,82.333v3.506h-.389V82.333Z" fill="#171716"/>
      <path id="Path_19" data-name="Path 19" d="M331.563,83.106a1.7,1.7,0,0,0-.457-.326,1.5,1.5,0,0,0-.6-.137,1.446,1.446,0,0,0,0,2.891,1.455,1.455,0,0,0,.652-.163,1.606,1.606,0,0,0,.4-.294v.484a1.827,1.827,0,0,1-1.056.341,1.814,1.814,0,1,1,.021-3.627,1.655,1.655,0,0,1,1.035.347Z" fill="#171716"/>
      <path id="Path_20" data-name="Path 20" d="M335.6,82.7h-1.43v1.041h1.388v.368h-1.388v1.361h1.43v.368h-1.819V82.333H335.6Z" fill="#171716"/>
      <path id="Path_21" data-name="Path 21" d="M339.381,83.027a.848.848,0,0,0-.205-.263.632.632,0,0,0-.395-.121.538.538,0,0,0-.588.542.365.365,0,0,0,.131.3,1.154,1.154,0,0,0,.368.221l.336.147a1.692,1.692,0,0,1,.542.332.84.84,0,0,1,.252.636,1.125,1.125,0,0,1-1.871.793,1.272,1.272,0,0,1-.326-.62l.378-.105a.836.836,0,0,0,.211.447.718.718,0,0,0,1.209-.5.522.522,0,0,0-.174-.41,1.541,1.541,0,0,0-.42-.241l-.316-.148a1.536,1.536,0,0,1-.467-.289.726.726,0,0,1-.242-.573.906.906,0,0,1,.983-.9.946.946,0,0,1,.562.158,1.053,1.053,0,0,1,.342.389Z" fill="#171716"/>
      <path id="Path_22" data-name="Path 22" d="M341.834,82.957v-.541l3.259,1.525v.465l-3.259,1.525V85.39l2.681-1.217Z" fill="#171716"/>
    </g>
    <path id="Path_23" data-name="Path 23" d="M243.474,73.323V38.333h6.776c2.691,0,5.012.093,7.239,1.9a10.269,10.269,0,0,1,3.574,7.889,8.128,8.128,0,0,1-3.759,7.239c2.876,1.392,4.315,5.105,4.315,8.121,0,6.915-5.1,9.838-11.416,9.838Zm6.915-29.189v8.538c2.6,0,4.131-1.763,4.131-4.408C254.52,45.711,253.035,43.994,250.389,44.134Zm0,13.922v9.467c2.783.138,4.409-1.9,4.409-4.827C254.8,59.958,253.127,57.963,250.389,58.056Z" fill="#171716"/>
    <path id="Path_24" data-name="Path 24" d="M271.451,38.333V60.979c0,2.646-.324,6.637,3.434,6.637,3.388,0,3.388-2.552,3.435-5.152V38.333h6.914V63.856c0,3.713-.418,10.025-10.4,10.025-6.45,0-10.3-3.018-10.3-9.561V38.333Z" fill="#171716"/>
    <path id="Path_25" data-name="Path 25" d="M306.581,73.323V38.333h5.244c1.206,0,15.686-1.764,15.686,17.773,0,9.977-3.852,17.217-14.758,17.217ZM320.6,56.061c0-4.456-1.393-11.51-7.1-11.51V67.105C319.064,67.384,320.6,60.422,320.6,56.061Z" fill="#171716"/>
    <path id="Path_26" data-name="Path 26" d="M337.845,38.333V66.826h7.239v6.5H330.931V38.333Z" fill="#171716"/>
    <path id="Path_27" data-name="Path 27" d="M299.941,38.405V58l-7.933-19.6Z" fill="#171716"/>
    <path id="Path_28" data-name="Path 28" d="M292.008,52.145V73.507l8.35-.184Z" fill="#171716"/>
    <path id="Path_29" data-name="Path 29" d="M345.082,24.84h-14.12v6.722h14.12v14.12H351.8V24.84Z" fill="#5ab6ad"/>
  </g>
</svg>
