<svg xmlns="http://www.w3.org/2000/svg" width="12.159" height="9.264" viewBox="0 0 12.159 9.264">
  <g id="Group_17" data-name="Group 17" transform="translate(-299.343 -1064.602)">
    <path id="Path_36" data-name="Path 36" d="M299.343,1072.916v-7.362a.154.154,0,0,0,.015-.032,1.081,1.081,0,0,1,1.12-.92c.471.008.942,0,1.413,0h8.478a1.07,1.07,0,0,1,1.131,1.1q0,3.532,0,7.065a1.2,1.2,0,0,1-.112.491,1.046,1.046,0,0,1-1.028.608h-9.95a1.077,1.077,0,0,1-.84-.421A1.3,1.3,0,0,1,299.343,1072.916Zm10.907-7.59h-9.678l4.859,4.817Zm-6.221,4.4-3.424,3.424h9.636l-3.387-3.386c-.021.02-.053.049-.083.079l-1.008,1.007a.38.38,0,0,1-.638,0C304.756,1070.469,304.39,1070.091,304.029,1069.722Zm-3.969,2.9,3.417-3.416-3.417-3.389Zm7.354-3.4,3.367,3.367v-6.734Z"/>
  </g>
</svg>
