<svg xmlns="http://www.w3.org/2000/svg" width="22.254" height="18.083" viewBox="0 0 22.254 18.083">
  <g id="Group_11" data-name="Group 11" transform="translate(-357.156 -964.844)">
    <g id="Group_10" data-name="Group 10">
      <g id="Group_9" data-name="Group 9">
        <path id="Path_32" data-name="Path 32" d="M379.41,966.987a9.449,9.449,0,0,1-2.627.724,4.656,4.656,0,0,0,2.006-2.536,8.816,8.816,0,0,1-2.895,1.1A4.57,4.57,0,0,0,368,969.4a4.868,4.868,0,0,0,.111,1.055,13,13,0,0,1-9.406-4.78,4.562,4.562,0,0,0,1.408,6.1,4.525,4.525,0,0,1-2.058-.58v.069a4.549,4.549,0,0,0,3.663,4.463,4.5,4.5,0,0,1-1.206.163,4.025,4.025,0,0,1-.868-.085,4.606,4.606,0,0,0,4.267,3.182,9.215,9.215,0,0,1-5.662,1.952,9.345,9.345,0,0,1-1.1-.068,12.976,12.976,0,0,0,19.987-10.934c0-.2-.009-.387-.012-.59a9.57,9.57,0,0,0,2.279-2.359" fill="#5ab6ad"/>
      </g>
    </g>
  </g>
</svg>
