<svg xmlns="http://www.w3.org/2000/svg" width="11.702" height="11.751" viewBox="0 0 11.702 11.751">
  <g id="Group_19" data-name="Group 19" transform="translate(-180.811 -1062.017)">
    <path id="Path_37" data-name="Path 37" d="M180.811,1073.768c.126-.457.245-.892.364-1.328.145-.53.292-1.061.432-1.593a.276.276,0,0,0-.021-.181,5.8,5.8,0,0,1,.749-6.692,5.612,5.612,0,0,1,3.812-1.933,5.826,5.826,0,1,1,.412,11.627,5.735,5.735,0,0,1-2.582-.664.26.26,0,0,0-.172-.014c-.955.246-1.909.5-2.863.747Zm1.4-1.385.076-.017c.528-.138,1.057-.274,1.583-.417a.382.382,0,0,1,.32.041,4.7,4.7,0,0,0,4.413.292,4.842,4.842,0,0,0-1.681-9.282,4.848,4.848,0,0,0-4.292,7.487.261.261,0,0,1,.036.238C182.512,1071.27,182.365,1071.817,182.211,1072.383Z"/>
    <path id="Path_38" data-name="Path 38" d="M184.822,1065.151c.235-.061.352.1.439.325.131.338.273.672.417,1.005a.3.3,0,0,1-.027.321c-.117.157-.23.317-.354.468a.226.226,0,0,0-.02.29,4,4,0,0,0,2,1.723.227.227,0,0,0,.293-.071c.145-.181.3-.358.436-.544a.222.222,0,0,1,.295-.095c.417.195.833.393,1.245.6a.2.2,0,0,1,.085.146,1.105,1.105,0,0,1-.5,1.047,1.752,1.752,0,0,1-1.5.191,5.826,5.826,0,0,1-3.144-2.268,3.754,3.754,0,0,1-.694-1.269,1.641,1.641,0,0,1,.341-1.58A.664.664,0,0,1,184.822,1065.151Z"/>
  </g>
</svg>
